<svg width="557" height="519" viewBox="0 0 557 519" fill="none" xmlns="http://www.w3.org/2000/svg">
<path d="M247.678 45.2443L144.863 45.2409L221.979 178.798L67.7577 178.792L119.168 267.83L273.391 267.837L350.506 401.393L453.322 401.397L376.205 267.84L530.428 267.847L479.016 178.807L324.795 178.802L247.678 45.2443Z" fill="#175C9A"/>
<path d="M102.839 117.877L144.815 45.1782L221.975 178.906L138.27 178.533L102.839 117.877Z" fill="#B5E4FD"/>
<path d="M25.7098 251.469L67.6882 178.766L119.221 267.895L77.2531 340.602L25.7098 251.469Z" fill="#B5E4FD"/>
<path d="M77.255 340.602L119.23 267.9L273.444 267.754L231.469 340.456L77.255 340.602Z" fill="#00224D"/>
<path d="M231.467 340.455L273.442 267.753L350.422 401.379L308.447 474.081L231.467 340.455Z" fill="#B5E4FD"/>
<path d="M308.444 474.08L350.42 401.376L453.376 401.444L411.442 474.08L308.444 474.08Z" fill="#00224D"/>
<path d="M488.509 340.607L530.51 267.859L376.115 267.898L418.015 340.517L488.509 340.607Z" fill="#00224D"/>
</svg>
